<svg xmlns="http://www.w3.org/2000/svg" xmlns:xlink="http://www.w3.org/1999/xlink" width="400" zoomAndPan="magnify" viewBox="0 0 300 149.999998" height="200" preserveAspectRatio="xMidYMid meet" version="1.0"><defs><g/><clipPath id="75a58f3b41"><path d="M 1 26 L 86 26 L 86 110.613281 L 1 110.613281 Z M 1 26 " clip-rule="nonzero"/></clipPath></defs><g clip-path="url(#75a58f3b41)"><path fill="#8c52ff" d="M 73.984375 81.917969 L 81.640625 79.359375 C 82.453125 79.097656 83.15625 78.664062 83.757812 78.058594 C 84.359375 77.453125 84.785156 76.742188 85.039062 75.929688 C 86.957031 69.488281 81.429688 65.101562 76.472656 66.761719 L 70.015625 68.933594 C 69.75 69.023438 69.472656 69.058594 69.191406 69.039062 C 68.910156 69.019531 68.640625 68.945312 68.390625 68.820312 C 68.136719 68.695312 67.917969 68.523438 67.730469 68.308594 C 67.546875 68.097656 67.410156 67.855469 67.320312 67.585938 L 63.023438 54.8125 C 62.933594 54.542969 62.898438 54.269531 62.917969 53.984375 C 62.9375 53.703125 63.011719 53.4375 63.136719 53.183594 C 63.261719 52.929688 63.433594 52.710938 63.648438 52.527344 C 63.859375 52.339844 64.101562 52.203125 64.371094 52.117188 L 70.824219 49.957031 C 75.753906 48.3125 77.535156 41.542969 72.234375 37.542969 C 71.515625 37.027344 70.722656 36.707031 69.847656 36.582031 C 68.976562 36.457031 68.121094 36.542969 67.289062 36.839844 L 59.726562 39.355469 C 59.503906 39.429688 59.273438 39.460938 59.035156 39.445312 C 58.800781 39.429688 58.574219 39.367188 58.363281 39.261719 C 58.152344 39.15625 57.96875 39.015625 57.8125 38.835938 C 57.65625 38.65625 57.539062 38.457031 57.464844 38.230469 L 55.097656 31.148438 C 53.453125 26.21875 46.683594 24.4375 42.683594 29.738281 C 42.167969 30.457031 41.847656 31.25 41.722656 32.125 C 41.597656 32.996094 41.683594 33.851562 41.980469 34.683594 L 44.496094 42.171875 C 44.585938 42.4375 44.621094 42.714844 44.601562 42.996094 C 44.582031 43.277344 44.507812 43.546875 44.382812 43.796875 C 44.253906 44.050781 44.085938 44.269531 43.871094 44.457031 C 43.65625 44.640625 43.417969 44.777344 43.148438 44.867188 L 29.667969 49.359375 C 29.398438 49.449219 29.125 49.484375 28.84375 49.464844 C 28.5625 49.445312 28.292969 49.371094 28.039062 49.246094 C 27.789062 49.117188 27.566406 48.949219 27.382812 48.734375 C 27.199219 48.519531 27.0625 48.28125 26.972656 48.011719 L 24.710938 41.257812 C 23.0625 36.328125 16.292969 34.546875 12.292969 39.847656 C 11.777344 40.566406 11.457031 41.359375 11.335938 42.234375 C 11.210938 43.105469 11.296875 43.960938 11.589844 44.792969 L 14.226562 52.65625 C 14.308594 52.878906 14.347656 53.113281 14.335938 53.355469 C 14.324219 53.597656 14.265625 53.824219 14.160156 54.042969 C 14.054688 54.257812 13.914062 54.449219 13.734375 54.605469 C 13.550781 54.765625 13.347656 54.882812 13.117188 54.960938 L 5.511719 57.507812 C 4.699219 57.816406 3.992188 58.277344 3.382812 58.894531 C 2.773438 59.511719 2.320312 60.226562 2.019531 61.042969 C 0.523438 66.417969 4.164062 70.34375 8.296875 70.449219 C 9.085938 70.464844 9.855469 70.351562 10.601562 70.101562 L 17.058594 67.929688 C 17.324219 67.839844 17.601562 67.804688 17.882812 67.824219 C 18.164062 67.84375 18.433594 67.917969 18.683594 68.046875 C 18.9375 68.171875 19.15625 68.339844 19.34375 68.554688 C 19.527344 68.769531 19.664062 69.011719 19.753906 69.277344 L 24.082031 82.070312 C 24.171875 82.335938 24.207031 82.613281 24.1875 82.894531 C 24.167969 83.175781 24.09375 83.445312 23.96875 83.699219 C 23.839844 83.949219 23.671875 84.167969 23.457031 84.355469 C 23.242188 84.539062 23.003906 84.675781 22.734375 84.765625 L 15.453125 87.207031 C 14.644531 87.515625 13.9375 87.976562 13.328125 88.59375 C 12.71875 89.210938 12.265625 89.925781 11.964844 90.742188 C 10.46875 96.117188 14.105469 100.042969 18.242188 100.148438 C 19.039062 100.167969 19.820312 100.054688 20.578125 99.800781 L 27.363281 97.527344 C 27.585938 97.449219 27.816406 97.421875 28.054688 97.4375 C 28.289062 97.453125 28.511719 97.511719 28.726562 97.617188 C 28.9375 97.722656 29.121094 97.867188 29.277344 98.042969 C 29.433594 98.222656 29.546875 98.425781 29.625 98.648438 L 31.988281 105.734375 C 32.210938 106.394531 32.523438 107.011719 32.933594 107.578125 C 33.34375 108.140625 33.832031 108.632812 34.394531 109.046875 C 34.953125 109.464844 35.566406 109.785156 36.226562 110.011719 C 36.886719 110.238281 37.566406 110.359375 38.265625 110.375 C 39.480469 110.378906 40.632812 110.101562 41.714844 109.542969 C 42.792969 108.984375 43.6875 108.210938 44.390625 107.214844 C 44.921875 106.5 45.253906 105.699219 45.386719 104.816406 C 45.519531 103.933594 45.4375 103.070312 45.140625 102.230469 L 42.609375 94.742188 C 42.519531 94.472656 42.484375 94.195312 42.503906 93.914062 C 42.523438 93.632812 42.597656 93.367188 42.722656 93.113281 C 42.847656 92.859375 43.019531 92.640625 43.234375 92.457031 C 43.445312 92.269531 43.6875 92.132812 43.957031 92.042969 L 57.4375 87.550781 C 57.703125 87.460938 57.980469 87.425781 58.261719 87.445312 C 58.542969 87.464844 58.8125 87.539062 59.0625 87.664062 C 59.316406 87.792969 59.535156 87.960938 59.722656 88.175781 C 59.90625 88.390625 60.042969 88.628906 60.132812 88.898438 L 62.394531 95.652344 C 62.613281 96.3125 62.929688 96.925781 63.339844 97.488281 C 63.75 98.050781 64.234375 98.542969 64.792969 98.957031 C 65.355469 99.367188 65.964844 99.6875 66.621094 99.914062 C 67.28125 100.140625 67.957031 100.265625 68.652344 100.28125 C 69.265625 100.277344 69.867188 100.195312 70.460938 100.042969 C 71.050781 99.886719 71.617188 99.660156 72.152344 99.367188 C 72.6875 99.070312 73.179688 98.714844 73.628906 98.296875 C 74.074219 97.878906 74.464844 97.410156 74.792969 96.898438 C 75.300781 96.191406 75.613281 95.410156 75.738281 94.550781 C 75.863281 93.691406 75.78125 92.851562 75.5 92.03125 L 72.863281 84.167969 C 72.789062 83.941406 72.761719 83.714844 72.777344 83.480469 C 72.792969 83.246094 72.855469 83.023438 72.960938 82.8125 C 73.066406 82.601562 73.207031 82.417969 73.386719 82.265625 C 73.5625 82.109375 73.761719 81.996094 73.984375 81.917969 Z M 52.539062 74.820312 L 40.273438 78.925781 C 39.921875 79.042969 39.5625 79.089844 39.191406 79.066406 C 38.824219 79.039062 38.472656 78.945312 38.140625 78.78125 C 37.808594 78.617188 37.523438 78.394531 37.277344 78.117188 C 37.035156 77.835938 36.855469 77.523438 36.738281 77.171875 L 32.875 65.59375 C 32.753906 65.25 32.707031 64.894531 32.730469 64.53125 C 32.75 64.164062 32.839844 63.816406 33 63.488281 C 33.15625 63.160156 33.371094 62.871094 33.644531 62.628906 C 33.914062 62.382812 34.222656 62.199219 34.566406 62.074219 L 46.832031 57.957031 C 47.183594 57.835938 47.542969 57.789062 47.910156 57.816406 C 48.28125 57.839844 48.632812 57.933594 48.964844 58.097656 C 49.292969 58.261719 49.582031 58.484375 49.824219 58.765625 C 50.070312 59.042969 50.25 59.359375 50.367188 59.707031 L 54.230469 71.257812 C 54.355469 71.605469 54.410156 71.964844 54.390625 72.332031 C 54.371094 72.703125 54.285156 73.054688 54.125 73.390625 C 53.964844 73.722656 53.75 74.015625 53.472656 74.261719 C 53.199219 74.511719 52.886719 74.695312 52.539062 74.820312 Z M 52.539062 74.820312 " fill-opacity="1" fill-rule="nonzero"/></g><g fill="#ffffff" fill-opacity="1"><g transform="translate(92.189325, 99.403036)"><g><path d="M 18.953125 0 C 14.503906 0 11.050781 -1.164062 8.59375 -3.5 C 6.144531 -5.84375 4.921875 -9.125 4.921875 -13.34375 L 4.921875 -57.046875 C 4.921875 -58.679688 5.445312 -59.96875 6.5 -60.90625 C 7.550781 -61.84375 8.953125 -62.3125 10.703125 -62.3125 C 12.460938 -62.3125 13.882812 -61.828125 14.96875 -60.859375 C 16.050781 -59.898438 16.59375 -58.628906 16.59375 -57.046875 L 16.59375 -13.34375 C 16.59375 -12 16.925781 -10.945312 17.59375 -10.1875 C 18.269531 -9.425781 19.191406 -9.046875 20.359375 -9.046875 L 48.453125 -9.046875 C 50.203125 -9.046875 51.546875 -8.648438 52.484375 -7.859375 C 53.421875 -7.066406 53.890625 -5.9375 53.890625 -4.46875 C 53.890625 -3.070312 53.40625 -1.976562 52.4375 -1.1875 C 51.46875 -0.394531 50.140625 0 48.453125 0 Z M 18.953125 0 "/></g></g></g><g fill="#ffffff" fill-opacity="1"><g transform="translate(148.350303, 99.403036)"><g><path d="M 13.34375 0.875 C 11.582031 0.875 10.175781 0.40625 9.125 -0.53125 C 8.070312 -1.46875 7.546875 -2.753906 7.546875 -4.390625 L 7.546875 -57.046875 C 7.546875 -58.679688 8.070312 -59.96875 9.125 -60.90625 C 10.175781 -61.84375 11.582031 -62.3125 13.34375 -62.3125 C 15.039062 -62.3125 16.441406 -61.84375 17.546875 -60.90625 C 18.660156 -59.96875 19.21875 -58.679688 19.21875 -57.046875 L 19.21875 -4.390625 C 19.21875 -2.753906 18.660156 -1.46875 17.546875 -0.53125 C 16.441406 0.40625 15.039062 0.875 13.34375 0.875 Z M 13.34375 0.875 "/></g></g></g><g fill="#ffffff" fill-opacity="1"><g transform="translate(175.114515, 99.403036)"><g><path d="M 10.265625 0.875 C 8.515625 0.875 7.109375 0.40625 6.046875 -0.53125 C 4.992188 -1.46875 4.46875 -2.753906 4.46875 -4.390625 L 4.46875 -37.46875 C 4.46875 -45.257812 6.894531 -51.347656 11.75 -55.734375 C 16.613281 -60.117188 23.347656 -62.3125 31.953125 -62.3125 C 40.546875 -62.3125 47.269531 -60.117188 52.125 -55.734375 C 56.988281 -51.347656 59.421875 -45.257812 59.421875 -37.46875 L 59.421875 -4.390625 C 59.421875 -2.753906 58.890625 -1.46875 57.828125 -0.53125 C 56.773438 0.40625 55.375 0.875 53.625 0.875 C 51.863281 0.875 50.441406 0.394531 49.359375 -0.5625 C 48.285156 -1.53125 47.75 -2.804688 47.75 -4.390625 L 47.75 -37.734375 C 47.75 -42.710938 46.398438 -46.515625 43.703125 -49.140625 C 41.015625 -51.773438 37.097656 -53.09375 31.953125 -53.09375 C 26.796875 -53.09375 22.875 -51.773438 20.1875 -49.140625 C 17.5 -46.515625 16.15625 -42.710938 16.15625 -37.734375 L 16.15625 -4.390625 C 16.15625 -2.804688 15.613281 -1.53125 14.53125 -0.5625 C 13.445312 0.394531 12.023438 0.875 10.265625 0.875 Z M 10.265625 0.875 "/></g></g></g><g fill="#ffffff" fill-opacity="1"><g transform="translate(238.997624, 99.403036)"><g><path d="M 52.21875 0.875 C 48.53125 0.875 46.453125 -0.410156 45.984375 -2.984375 C 44.878906 -9.242188 42.703125 -14.453125 39.453125 -18.609375 C 36.203125 -22.765625 31.476562 -26.453125 25.28125 -29.671875 L 16.59375 -22.46875 L 16.59375 -4.390625 C 16.59375 -2.804688 16.050781 -1.53125 14.96875 -0.5625 C 13.882812 0.394531 12.460938 0.875 10.703125 0.875 C 8.953125 0.875 7.550781 0.40625 6.5 -0.53125 C 5.445312 -1.46875 4.921875 -2.753906 4.921875 -4.390625 L 4.921875 -57.046875 C 4.921875 -58.679688 5.445312 -59.96875 6.5 -60.90625 C 7.550781 -61.84375 8.953125 -62.3125 10.703125 -62.3125 C 12.460938 -62.3125 13.882812 -61.828125 14.96875 -60.859375 C 16.050781 -59.898438 16.59375 -58.628906 16.59375 -57.046875 L 16.59375 -35.1875 L 45.90625 -60.734375 C 46.957031 -61.722656 48.1875 -62.21875 49.59375 -62.21875 C 50.988281 -62.21875 52.21875 -61.664062 53.28125 -60.5625 C 54.382812 -59.332031 54.9375 -58.191406 54.9375 -57.140625 C 54.9375 -55.910156 54.234375 -54.679688 52.828125 -53.453125 L 32.65625 -35.890625 C 39.675781 -32.847656 45.273438 -28.5625 49.453125 -23.03125 C 53.640625 -17.507812 56.140625 -11.410156 56.953125 -4.734375 C 57.128906 -3.210938 56.75 -1.894531 55.8125 -0.78125 C 54.882812 0.320312 53.6875 0.875 52.21875 0.875 Z M 52.21875 0.875 "/></g></g></g></svg>